<?xml version="1.0" encoding="utf-8"?>
<!-- Generator: Adobe Illustrator 16.0.0, SVG Export Plug-In . SVG Version: 6.00 Build 0)  -->
<!DOCTYPE svg PUBLIC "-//W3C//DTD SVG 1.1//EN" "http://www.w3.org/Graphics/SVG/1.1/DTD/svg11.dtd">
<svg version="1.1" id="Layer_1" xmlns="http://www.w3.org/2000/svg" xmlns:xlink="http://www.w3.org/1999/xlink" x="0px" y="0px"
	 width="24px" height="30px" viewBox="0 0 24 30" enable-background="new 0 0 24 30" xml:space="preserve">
<path fill="#0087CD" d="M23.985,15.919C23.995,15.723,24,15.525,24,15.325c0-0.557-0.041-1.104-0.115-1.643l-9.943,9.944
	c-0.47-0.222-0.947-0.477-1.428-0.764L23.495,11.88c-0.177-0.582-0.393-1.146-0.65-1.688L11.1,21.938
	c-0.052-0.038-0.104-0.07-0.155-0.107c-0.362-0.264-0.725-0.549-1.086-0.845L22.055,8.79c-0.305-0.467-0.643-0.912-1.009-1.331
	L8.612,19.893c-0.192-0.179-0.385-0.361-0.574-0.552c-0.179-0.179-0.353-0.36-0.523-0.541L19.953,6.361
	c-0.415-0.369-0.857-0.709-1.322-1.016L6.42,17.556c-0.224-0.272-0.442-0.546-0.648-0.82c-0.104-0.141-0.203-0.281-0.304-0.421
	L17.235,4.548c-0.538-0.259-1.099-0.48-1.678-0.659L4.542,14.904c-0.288-0.481-0.545-0.956-0.768-1.424l9.991-9.993
	c-0.564-0.081-1.142-0.126-1.729-0.126c-0.167,0-0.331,0.006-0.497,0.013l-8.437,8.437c-0.203-0.636-0.332-1.24-0.388-1.806
	l6.242-6.243c-4.032,1.071-7.223,4.199-8.396,8.188c0,0.002,0,0.003-0.001,0.004C0.533,12.054,0.5,12.15,0.473,12.248l0.014-0.013
	c-1.079,3.998-0.056,8.444,3.079,11.579c4.668,4.668,12.24,4.664,16.913-0.009c-0.029,0.029-0.065,0.053-0.096,0.081
	c1.488-1.451,2.604-3.286,3.177-5.349l-6.13,6.132c-0.568-0.052-1.176-0.18-1.814-0.38L23.985,15.919z"/>
</svg>
