<?xml version="1.0" encoding="utf-8"?>
<!-- Generator: Adobe Illustrator 16.0.0, SVG Export Plug-In . SVG Version: 6.00 Build 0)  -->
<!DOCTYPE svg PUBLIC "-//W3C//DTD SVG 1.1//EN" "http://www.w3.org/Graphics/SVG/1.1/DTD/svg11.dtd">
<svg version="1.1" id="Layer_1" xmlns="http://www.w3.org/2000/svg" xmlns:xlink="http://www.w3.org/1999/xlink" x="0px" y="0px"
	 width="24px" height="30px" viewBox="0 0 24 30" enable-background="new 0 0 24 30" xml:space="preserve">
<g>
	<path fill="#78942C" d="M7.986,5.223c0-1,0.347-1.866,1.031-2.58L9.151,2.51c0.712-0.682,1.577-1.028,2.577-1.028
		c0.993,0,1.861,0.345,2.581,1.03l0.131,0.131c0.682,0.718,1.027,1.585,1.027,2.578c0,0.991-0.346,1.858-1.03,2.58l-2.573,2.572
		c-0.075,0.075-0.195,0.075-0.27,0L9.019,7.798C8.335,7.087,7.988,6.221,7.986,5.223"/>
	<polygon fill="#78942C" points="22.313,12.518 1.313,12.518 1.313,19.563 8.08,19.563 8.08,28.518 15.455,28.518 15.455,19.563 
		22.313,19.563 	"/>
</g>
</svg>
