<?xml version="1.0" encoding="UTF-8" standalone="no"?>
<!DOCTYPE svg PUBLIC "-//W3C//DTD SVG 1.1//EN" "http://www.w3.org/Graphics/SVG/1.1/DTD/svg11.dtd">
<svg width="100%" height="100%" viewBox="0 0 1014 984" version="1.1" xmlns="http://www.w3.org/2000/svg" xmlns:xlink="http://www.w3.org/1999/xlink" xml:space="preserve" xmlns:serif="http://www.serif.com/" style="fill-rule:evenodd;clip-rule:evenodd;stroke-linejoin:round;stroke-miterlimit:2;">
    <g transform="matrix(26.2754,11.0648,-11.0648,26.2754,16.0107,-78.5266)">
        <g id="Layer1">
            <g>
                <path id="Path" d="M9.259,22.008C4.203,22.145 0.137,26.203 0,31.249L0,31.734C0.028,34.177 1.03,36.508 2.785,38.211C4.469,39.949 6.779,40.944 9.201,40.976C9.302,40.992 9.404,40.999 9.506,40.995C9.584,41.002 9.663,41.002 9.741,40.995C14.804,40.875 18.88,36.807 19,31.754L19,22.385C19,22.172 18.827,22 18.614,22L9.259,22.008Z" style="fill:rgb(81,76,154);fill-rule:nonzero;"/>
                <path id="Path1" serif:id="Path" d="M31.252,0C26.199,0.134 22.134,4.202 22,9.259L22,18.614C22,18.827 22.173,19 22.386,19L31.742,19C36.777,18.873 40.838,14.834 40.994,9.795C41.002,9.698 41.002,9.599 40.994,9.502C41.002,9.422 41.002,9.342 40.994,9.263C40.86,4.206 36.795,0.137 31.742,0.004L31.252,0Z" style="fill:rgb(81,76,154);fill-rule:nonzero;"/>
                <path id="Path2" serif:id="Path" d="M9.261,0.008C4.201,0.137 0.13,4.208 0,9.267L0,9.741C0.134,14.798 4.203,18.866 9.261,19L18.614,19C18.827,19 19,18.827 19,18.614L19,9.259C18.876,4.198 14.802,0.124 9.739,0L9.261,0.008Z" style="fill:rgb(81,76,154);fill-rule:nonzero;"/>
                <path id="Path3" serif:id="Path" d="M22.386,22C22.173,22 22,22.173 22,22.386L22,31.738C22.032,34.181 23.032,36.511 24.78,38.217C26.469,39.963 28.784,40.962 31.212,40.994C31.308,41.001 31.405,41.001 31.501,40.994C31.58,41.002 31.66,41.002 31.74,40.994C36.779,40.881 40.847,36.84 40.994,31.8C41.002,31.701 41.002,31.602 40.994,31.503C41,31.423 41,31.343 40.994,31.264C40.864,26.206 36.796,22.137 31.74,22.008L22.386,22Z" style="fill:rgb(81,76,154);fill-rule:nonzero;"/>
            </g>
        </g>
    </g>
</svg>
